
<svg xmlns="http://www.w3.org/2000/svg" xmlns:xlink="http://www.w3.org/1999/xlink" viewBox="0 0 608 308" width="608" height="308" fill="none">
  <g opacity="100%">
    <rect x="0" y="0" width="608" height="308" fill="#282828" rx="24" filter="url(#filter_dshadow_0_0_0_00000014)"></rect>
  </g>
  <g opacity="100%">
    <text x="24" y="43" font-family="Source Sans Pro" font-size="16" fill="#fff" letter-spacing="0" font-weight="500" font-style="normal">Statistics</text>
  </g>
  <g opacity="100%">
    <rect filter="url(#filter_dshadow_0_0_0_00000014)" x="472" y="24" width="112" height="26" fill="#f5f5f5" rx="13"></rect>
    <text x="480" y="41.5" font-family="Source Sans Pro" font-size="12" fill="#8a8a8a" letter-spacing="0" font-weight="normal" font-style="normal">
      <tspan>Last 7 days</tspan>
    </text>
    <svg xmlns="http://www.w3.org/2000/svg" height="14" width="14" viewBox="0 0 24 24" fill="#8a8a8a" x="562" y="30">
      <path d="M0 0h24v24H0z" fill="none"></path>
      <path d="M16.59 8.59 12 13.17 7.41 8.59 6 10l6 6 6-6z"></path>
    </svg>
  </g>
  <g opacity="100%">
    <text x="257" y="41.5" font-family="Source Sans Pro" font-size="12" fill="#fff" letter-spacing="0" font-weight="normal" font-style="normal">Expenses</text>
  </g>
  <svg xmlns="http://www.w3.org/2000/svg" viewBox="0 0 512 512" width="8" height="8" fill="#fff" x="245" y="33" opacity="100%">
    <path d="M512 256C512 397.4 397.4 512 256 512C114.6 512 0 397.4 0 256C0 114.6 114.6 0 256 0C397.4 0 512 114.6 512 256z"></path>
  </svg>
  <g opacity="100%">
    <text x="340" y="41.5" font-family="Source Sans Pro" font-size="12" fill="#fff" letter-spacing="0" font-weight="normal" font-style="normal">Income</text>
  </g>
  <svg xmlns="http://www.w3.org/2000/svg" viewBox="0 0 512 512" width="8" height="8" fill="#fff" x="328" y="33" opacity="100%">
    <path d="M512 256C512 397.4 397.4 512 256 512C114.6 512 0 397.4 0 256C0 114.6 114.6 0 256 0C397.4 0 512 114.6 512 256z"></path>
  </svg>
  <g opacity="100%">
    <text x="78" y="281.5" font-family="Source Sans Pro" font-size="12" fill="#fff" letter-spacing="0" font-weight="normal" font-style="normal">
      <tspan x="82">1/1</tspan>
    </text>
  </g>
  <g opacity="100%">
    <text x="154" y="281.5" font-family="Source Sans Pro" font-size="12" fill="#fff" letter-spacing="0" font-weight="normal" font-style="normal">
      <tspan x="158">1/2</tspan>
    </text>
  </g>
  <g opacity="100%">
    <text x="230" y="281.5" font-family="Source Sans Pro" font-size="12" fill="#fff" letter-spacing="0" font-weight="normal" font-style="normal">
      <tspan x="234">1/3</tspan>
    </text>
  </g>
  <g opacity="100%">
    <text x="307" y="281.5" font-family="Source Sans Pro" font-size="12" fill="#fff" letter-spacing="0" font-weight="normal" font-style="normal">
      <tspan x="311">1/4</tspan>
    </text>
  </g>
  <g opacity="100%">
    <text x="383" y="281.5" font-family="Source Sans Pro" font-size="12" fill="#fff" letter-spacing="0" font-weight="normal" font-style="normal">
      <tspan x="387">1/5</tspan>
    </text>
  </g>
  <g opacity="100%">
    <text x="459" y="281.5" font-family="Source Sans Pro" font-size="12" fill="#fff" letter-spacing="0" font-weight="normal" font-style="normal">
      <tspan x="463">1/6</tspan>
    </text>
  </g>
  <g opacity="100%">
    <text x="535" y="281.5" font-family="Source Sans Pro" font-size="12" fill="#fff" letter-spacing="0" font-weight="normal" font-style="normal">
      <tspan x="539">1/7</tspan>
    </text>
  </g>
  <g opacity="100%">
    <rect x="56" y="88" width="528" height="2" fill="#8a8a8a" rx="1"></rect>
  </g>
  <g opacity="100%">
    <text x="16" y="257.5" font-family="Source Sans Pro" font-size="12" fill="#fff" letter-spacing="0" font-weight="normal" font-style="normal">
      <tspan x="34">0</tspan>
    </text>
  </g>
  <g opacity="100%">
    <text x="16" y="203.5" font-family="Source Sans Pro" font-size="12" fill="#fff" letter-spacing="0" font-weight="normal" font-style="normal">
      <tspan x="27">1K</tspan>
    </text>
  </g>
  <g opacity="100%">
    <text x="16" y="149.5" font-family="Source Sans Pro" font-size="12" fill="#fff" letter-spacing="0" font-weight="normal" font-style="normal">
      <tspan x="27">2K</tspan>
    </text>
  </g>
  <g opacity="100%">
    <text x="16" y="93.5" font-family="Source Sans Pro" font-size="12" fill="#fff" letter-spacing="0" font-weight="normal" font-style="normal">
      <tspan x="27">3K</tspan>
    </text>
  </g>
  <g opacity="100%">
    <rect x="56" y="143" width="528" height="2" fill="#8a8a8a" rx="1"></rect>
  </g>
  <g opacity="100%">
    <rect x="56" y="198" width="528" height="2" fill="#8a8a8a" rx="1"></rect>
  </g>
  <g opacity="100%">
    <rect x="56" y="252" width="528" height="2" fill="#8a8a8a" rx="1"></rect>
  </g>
  <g opacity="100%">
    <rect x="80.5" y="116.5" width="7" height="135" fill="#fff" stroke="#8a8a8a" stroke-width="1" rx="3.5" filter="url(#filter_dshadow_0_0_0_00000014)"></rect>
  </g>
  <g opacity="100%">
    <rect x="92" y="174" width="8" height="78" fill="#f2cfcd" rx="4" filter="url(#filter_dshadow_0_0_0_00000014)"></rect>
  </g>
  <g opacity="100%">
    <rect x="156.5" y="98.5" width="7" height="152" fill="#fff" stroke="#8a8a8a" stroke-width="1" rx="3.5" filter="url(#filter_dshadow_0_0_0_00000014)"></rect>
  </g>
  <g opacity="100%">
    <rect x="168" y="206" width="8" height="46" fill="#f2cfcd" rx="4" filter="url(#filter_dshadow_0_0_0_00000014)"></rect>
  </g>
  <g opacity="100%">
    <rect x="232.5" y="158.5" width="7" height="93" fill="#fff" stroke="#8a8a8a" stroke-width="1" rx="3.5" filter="url(#filter_dshadow_0_0_0_00000014)"></rect>
  </g>
  <g opacity="100%">
    <rect x="244" y="147" width="8" height="105" fill="#f2cfcd" rx="4" filter="url(#filter_dshadow_0_0_0_00000014)"></rect>
  </g>
  <g opacity="100%">
    <rect x="309.5" y="220.5" width="7" height="31" fill="#fff" stroke="#8a8a8a" stroke-width="1" rx="3.5" filter="url(#filter_dshadow_0_0_0_00000014)"></rect>
  </g>
  <g opacity="100%">
    <rect x="321" y="128" width="8" height="124" fill="#f2cfcd" rx="4" filter="url(#filter_dshadow_0_0_0_00000014)"></rect>
  </g>
  <g opacity="100%">
    <rect x="385.5" y="128.5" width="7" height="123" fill="#fff" stroke="#8a8a8a" stroke-width="1" rx="3.5" filter="url(#filter_dshadow_0_0_0_00000014)"></rect>
  </g>
  <g opacity="100%">
    <rect x="397" y="186" width="8" height="66" fill="#f2cfcd" rx="4" filter="url(#filter_dshadow_0_0_0_00000014)"></rect>
  </g>
  <g opacity="100%">
    <rect x="461.5" y="230.5" width="7" height="21" fill="#fff" stroke="#8a8a8a" stroke-width="1" rx="3.5" filter="url(#filter_dshadow_0_0_0_00000014)"></rect>
  </g>
  <g opacity="100%">
    <rect x="473" y="216" width="8" height="36" fill="#f2cfcd" rx="4" filter="url(#filter_dshadow_0_0_0_00000014)"></rect>
  </g>
  <g opacity="100%">
    <rect x="537.5" y="116.5" width="7" height="135" fill="#fff" stroke="#8a8a8a" stroke-width="1" rx="3.5" filter="url(#filter_dshadow_0_0_0_00000014)"></rect>
  </g>
  <g opacity="100%">
    <rect x="549" y="158" width="8" height="94" fill="#f2cfcd" rx="4" filter="url(#filter_dshadow_0_0_0_00000014)"></rect>
  </g>
  <defs>
    <filter id="filter_dshadow_0_0_0_00000014" color-interpolation-filters="sRGB" filterUnits="userSpaceOnUse">
      <feFlood flood-opacity="0" result="bg-fix"></feFlood>
      <feColorMatrix in="SourceAlpha" type="matrix" values="0 0 0 0 0 0 0 0 0 0 0 0 0 0 0 0 0 0 127 0" result="alpha"></feColorMatrix>
      <feOffset dx="0" dy="0"></feOffset>
      <feGaussianBlur stdDeviation="0"></feGaussianBlur>
      <feComposite in2="alpha" operator="out"></feComposite>
      <feColorMatrix type="matrix" values="0 0 0 0 0 0 0 0 0 0 0 0 0 0 0 0 0 0 0.08 0"></feColorMatrix>
      <feBlend mode="normal" in2="bg-fix" result="bg-fix-filter_dshadow_0_0_0_00000014"></feBlend>
      <feBlend in="SourceGraphic" in2="bg-fix-filter_dshadow_0_0_0_00000014" result="shape"></feBlend>
    </filter>
    <style>@import url(https://fonts.googleapis.com/css2?family=Source+Sans+Pro:ital,wght@0,200;0,300;0,400;0,600;0,700;0,900;1,200;1,300;1,400;1,600;1,700;1,900&amp;display=swap);
</style>
  </defs>
</svg>